<svg xmlns="http://www.w3.org/2000/svg" xmlns:xlink="http://www.w3.org/1999/xlink" width="500" zoomAndPan="magnify" viewBox="0 0 375 374.999991" height="500" preserveAspectRatio="xMidYMid meet" version="1.0"><defs><g/></defs><g fill="#ffffff" fill-opacity="1"><g transform="translate(36.344983, 273.250831)"><g><path d="M 126.09375 -44.578125 C 126.5625 -38.410156 125.332031 -32.671875 122.40625 -27.359375 C 119.476562 -22.054688 115.316406 -17.398438 109.921875 -13.390625 C 104.535156 -9.390625 98.1875 -6.195312 90.875 -3.8125 C 83.5625 -1.425781 75.90625 -0.15625 67.90625 0 C 70.675781 -0.3125 73.328125 -1.160156 75.859375 -2.546875 C 78.398438 -3.929688 80.671875 -5.660156 82.671875 -7.734375 C 84.679688 -9.816406 86.257812 -12.203125 87.40625 -14.890625 C 88.5625 -17.585938 89.140625 -20.398438 89.140625 -23.328125 C 89.140625 -29.179688 87.097656 -34.722656 83.015625 -39.953125 C 78.941406 -45.191406 73.785156 -50.3125 67.546875 -55.3125 C 61.316406 -60.3125 54.617188 -65.351562 47.453125 -70.4375 C 40.296875 -75.519531 33.597656 -80.832031 27.359375 -86.375 C 21.128906 -91.914062 15.972656 -97.765625 11.890625 -103.921875 C 7.816406 -110.085938 5.78125 -116.785156 5.78125 -124.015625 C 5.78125 -130.953125 7.664062 -136.804688 11.4375 -141.578125 C 15.207031 -146.347656 19.976562 -150.234375 25.75 -153.234375 C 31.519531 -156.234375 37.832031 -158.390625 44.6875 -159.703125 C 51.539062 -161.015625 58.125 -161.671875 64.4375 -161.671875 L 67.90625 -161.671875 C 62.507812 -161.203125 57.734375 -159.195312 53.578125 -155.65625 C 49.421875 -152.113281 47.113281 -147.113281 46.65625 -140.65625 C 46.1875 -134.644531 47.757812 -129.097656 51.375 -124.015625 C 55 -118.941406 59.617188 -114.054688 65.234375 -109.359375 C 70.859375 -104.660156 77.097656 -100 83.953125 -95.375 C 90.804688 -90.757812 97.234375 -85.875 103.234375 -80.71875 C 109.242188 -75.5625 114.398438 -70.054688 118.703125 -64.203125 C 123.015625 -58.347656 125.476562 -51.804688 126.09375 -44.578125 Z M 115.703125 -118.015625 C 114.785156 -122.640625 113.128906 -127.335938 110.734375 -132.109375 C 108.347656 -136.878906 105.347656 -141.34375 101.734375 -145.5 C 98.117188 -149.65625 93.960938 -153.15625 89.265625 -156 C 84.566406 -158.851562 79.445312 -160.585938 73.90625 -161.203125 C 78.832031 -160.742188 83.488281 -160.164062 87.875 -159.46875 C 92.257812 -158.78125 96.914062 -158.4375 101.84375 -158.4375 C 104.46875 -158.4375 107.046875 -158.664062 109.578125 -159.125 C 112.117188 -159.582031 114.160156 -160.429688 115.703125 -161.671875 Z M 41.578125 -11.078125 C 42.035156 -8.460938 44.035156 -6.039062 47.578125 -3.8125 C 51.117188 -1.582031 56.125 -0.3125 62.59375 0 C 54.738281 -0.3125 47.382812 -1.539062 40.53125 -3.6875 C 33.675781 -5.84375 27.671875 -8.691406 22.515625 -12.234375 C 17.359375 -15.773438 13.28125 -19.894531 10.28125 -24.59375 C 7.28125 -29.289062 5.78125 -34.410156 5.78125 -39.953125 C 5.78125 -43.335938 6.429688 -46.53125 7.734375 -49.53125 C 9.046875 -52.539062 10.816406 -55.160156 13.046875 -57.390625 C 15.273438 -59.617188 17.890625 -61.390625 20.890625 -62.703125 C 23.898438 -64.015625 27.097656 -64.671875 30.484375 -64.671875 C 33.867188 -64.671875 37.0625 -64.015625 40.0625 -62.703125 C 43.070312 -61.390625 45.691406 -59.617188 47.921875 -57.390625 C 50.148438 -55.160156 51.921875 -52.539062 53.234375 -49.53125 C 54.546875 -46.53125 55.203125 -43.335938 55.203125 -39.953125 C 55.203125 -36.566406 54.546875 -33.332031 53.234375 -30.25 C 51.921875 -27.175781 50.1875 -24.5625 48.03125 -22.40625 C 45.570312 -19.78125 43.800781 -17.773438 42.71875 -16.390625 C 41.644531 -15.003906 41.265625 -13.234375 41.578125 -11.078125 Z M 41.578125 -11.078125 "/></g></g></g><g fill="#ffffff" fill-opacity="1"><g transform="translate(168.447669, 273.250831)"><g><path d="M 60.28125 -15.25 C 60.28125 -11.394531 61.625 -7.890625 64.3125 -4.734375 C 67.007812 -1.578125 70.359375 0 74.359375 0 L 5.78125 0 C 9.625 0 12.890625 -1.578125 15.578125 -4.734375 C 18.273438 -7.890625 19.625 -11.394531 19.625 -15.25 L 19.625 -146.421875 C 19.625 -150.273438 18.273438 -153.78125 15.578125 -156.9375 C 12.890625 -160.09375 9.625 -161.671875 5.78125 -161.671875 L 74.359375 -161.671875 C 70.359375 -161.671875 67.007812 -160.09375 64.3125 -156.9375 C 61.625 -153.78125 60.28125 -150.273438 60.28125 -146.421875 Z M 119.640625 -142.5 C 119.640625 -144.8125 119.210938 -147.039062 118.359375 -149.1875 C 117.515625 -151.34375 116.398438 -153.304688 115.015625 -155.078125 C 113.628906 -156.847656 111.972656 -158.3125 110.046875 -159.46875 C 108.117188 -160.625 106.078125 -161.359375 103.921875 -161.671875 L 164.4375 -161.671875 C 160.28125 -161.203125 156.003906 -160.046875 151.609375 -158.203125 C 147.222656 -156.359375 142.875 -154.050781 138.5625 -151.28125 C 134.257812 -148.507812 130.144531 -145.390625 126.21875 -141.921875 C 122.289062 -138.453125 118.632812 -134.875 115.25 -131.1875 C 116.476562 -132.875 117.515625 -134.640625 118.359375 -136.484375 C 119.210938 -138.335938 119.640625 -140.34375 119.640625 -142.5 Z M 60.28125 -81.0625 C 60.4375 -80.90625 60.664062 -80.828125 60.96875 -80.828125 L 60.28125 -80.828125 Z M 92.375 -105.78125 C 97.457031 -104.238281 102.078125 -100.539062 106.234375 -94.6875 C 110.390625 -88.84375 114.316406 -81.992188 118.015625 -74.140625 C 121.710938 -66.285156 125.253906 -58.007812 128.640625 -49.3125 C 132.023438 -40.613281 135.566406 -32.601562 139.265625 -25.28125 C 142.960938 -17.96875 146.847656 -11.925781 150.921875 -7.15625 C 155.003906 -2.382812 159.507812 0 164.4375 0 L 112.9375 0 C 110.320312 0 107.703125 -1.84375 105.078125 -5.53125 C 102.460938 -9.226562 99.804688 -13.890625 97.109375 -19.515625 C 94.421875 -25.140625 91.726562 -31.296875 89.03125 -37.984375 C 86.332031 -44.679688 83.484375 -51.03125 80.484375 -57.03125 C 77.484375 -63.039062 74.363281 -68.238281 71.125 -72.625 C 67.894531 -77.019531 64.507812 -79.753906 60.96875 -80.828125 C 62.820312 -80.984375 64.976562 -81.832031 67.4375 -83.375 C 69.90625 -84.914062 72.523438 -86.835938 75.296875 -89.140625 C 78.066406 -91.453125 80.910156 -94.070312 83.828125 -97 C 86.753906 -99.925781 89.601562 -102.851562 92.375 -105.78125 Z M 92.375 -105.78125 "/></g></g></g><g fill="#ffffff" fill-opacity="1"><g transform="translate(43.05886, 314.759336)"><g><path d="M 12.625 -22.140625 C 16 -22.140625 18.734375 -21.125 20.828125 -19.09375 C 22.929688 -17.0625 23.984375 -14.390625 23.984375 -11.078125 C 23.984375 -7.765625 22.929688 -5.085938 20.828125 -3.046875 C 18.734375 -1.015625 16 0 12.625 0 L 1.890625 0 L 1.890625 -0.3125 L 2.3125 -0.3125 C 2.851562 -0.3125 3.316406 -0.503906 3.703125 -0.890625 C 4.097656 -1.285156 4.304688 -1.757812 4.328125 -2.3125 L 4.328125 -20.03125 C 4.328125 -20.53125 4.117188 -20.953125 3.703125 -21.296875 C 3.296875 -21.648438 2.832031 -21.828125 2.3125 -21.828125 L 1.9375 -21.828125 L 1.890625 -22.140625 Z M 6.390625 -21.203125 L 6.390625 -0.953125 L 12.625 -0.953125 C 14.394531 -0.953125 15.957031 -1.375 17.3125 -2.21875 C 18.675781 -3.0625 19.734375 -4.242188 20.484375 -5.765625 C 21.234375 -7.296875 21.609375 -9.066406 21.609375 -11.078125 C 21.609375 -14.109375 20.78125 -16.550781 19.125 -18.40625 C 17.46875 -20.269531 15.300781 -21.203125 12.625 -21.203125 Z M 6.390625 -21.203125 "/></g></g></g><g fill="#ffffff" fill-opacity="1"><g transform="translate(81.242882, 314.759336)"><g><path d="M 2.3125 -0.3125 C 2.851562 -0.3125 3.316406 -0.503906 3.703125 -0.890625 C 4.097656 -1.285156 4.304688 -1.757812 4.328125 -2.3125 L 4.328125 -20.03125 C 4.265625 -20.53125 4.039062 -20.953125 3.65625 -21.296875 C 3.28125 -21.648438 2.832031 -21.828125 2.3125 -21.828125 L 1.9375 -21.828125 L 1.890625 -22.140625 L 11.171875 -22.140625 C 11.828125 -22.140625 12.535156 -22.203125 13.296875 -22.328125 C 14.066406 -22.460938 14.613281 -22.59375 14.9375 -22.71875 L 14.9375 -18.734375 L 14.625 -18.734375 L 14.625 -19.296875 C 14.625 -19.804688 14.445312 -20.238281 14.09375 -20.59375 C 13.75 -20.957031 13.332031 -21.148438 12.84375 -21.171875 L 6.390625 -21.171875 L 6.390625 -11.390625 L 11.734375 -11.390625 C 12.160156 -11.410156 12.519531 -11.566406 12.8125 -11.859375 C 13.101562 -12.160156 13.25 -12.53125 13.25 -12.96875 L 13.25 -13.421875 L 13.578125 -13.421875 L 13.578125 -8.421875 L 13.25 -8.421875 L 13.25 -8.890625 C 13.25 -9.316406 13.109375 -9.675781 12.828125 -9.96875 C 12.546875 -10.257812 12.191406 -10.414062 11.765625 -10.4375 L 6.390625 -10.4375 L 6.390625 -0.984375 L 10.921875 -0.984375 C 12.472656 -0.984375 13.660156 -1.328125 14.484375 -2.015625 C 15.304688 -2.710938 15.992188 -3.75 16.546875 -5.125 L 16.859375 -5.125 L 15.03125 0 L 1.890625 0 L 1.890625 -0.3125 Z M 2.3125 -0.3125 "/></g></g></g><g fill="#ffffff" fill-opacity="1"><g transform="translate(112.151681, 314.759336)"><g><path d="M 23.765625 -21.828125 L 23.484375 -21.828125 C 22.765625 -21.828125 22.109375 -21.546875 21.515625 -20.984375 C 21.179688 -20.679688 20.914062 -20.3125 20.71875 -19.875 L 13.09375 -2.8125 C 12.3125 -1.101562 11.921875 -0.0195312 11.921875 0.4375 L 11.640625 0.4375 L 2.75 -19.84375 C 2.457031 -20.507812 2.050781 -21.003906 1.53125 -21.328125 C 1.019531 -21.660156 0.5 -21.828125 -0.03125 -21.828125 L -0.28125 -21.828125 L -0.28125 -22.140625 L 6.828125 -22.140625 L 6.828125 -21.828125 L 6.546875 -21.828125 C 5.910156 -21.828125 5.488281 -21.535156 5.28125 -20.953125 C 5.238281 -20.816406 5.21875 -20.664062 5.21875 -20.5 C 5.21875 -20.332031 5.269531 -20.125 5.375 -19.875 L 11.984375 -3.296875 L 18.890625 -19.875 C 18.972656 -20.125 19.015625 -20.367188 19.015625 -20.609375 C 19.015625 -20.859375 18.898438 -21.125 18.671875 -21.40625 C 18.453125 -21.6875 18.125 -21.828125 17.6875 -21.828125 L 17.40625 -21.828125 L 17.40625 -22.140625 L 23.765625 -22.140625 Z M 23.765625 -21.828125 "/></g></g></g><g fill="#ffffff" fill-opacity="1"><g transform="translate(148.216416, 314.759336)"><g><path d="M 2.3125 -0.3125 C 2.851562 -0.3125 3.316406 -0.503906 3.703125 -0.890625 C 4.097656 -1.285156 4.304688 -1.757812 4.328125 -2.3125 L 4.328125 -20.03125 C 4.265625 -20.53125 4.039062 -20.953125 3.65625 -21.296875 C 3.28125 -21.648438 2.832031 -21.828125 2.3125 -21.828125 L 1.9375 -21.828125 L 1.890625 -22.140625 L 11.171875 -22.140625 C 11.828125 -22.140625 12.535156 -22.203125 13.296875 -22.328125 C 14.066406 -22.460938 14.613281 -22.59375 14.9375 -22.71875 L 14.9375 -18.734375 L 14.625 -18.734375 L 14.625 -19.296875 C 14.625 -19.804688 14.445312 -20.238281 14.09375 -20.59375 C 13.75 -20.957031 13.332031 -21.148438 12.84375 -21.171875 L 6.390625 -21.171875 L 6.390625 -11.390625 L 11.734375 -11.390625 C 12.160156 -11.410156 12.519531 -11.566406 12.8125 -11.859375 C 13.101562 -12.160156 13.25 -12.53125 13.25 -12.96875 L 13.25 -13.421875 L 13.578125 -13.421875 L 13.578125 -8.421875 L 13.25 -8.421875 L 13.25 -8.890625 C 13.25 -9.316406 13.109375 -9.675781 12.828125 -9.96875 C 12.546875 -10.257812 12.191406 -10.414062 11.765625 -10.4375 L 6.390625 -10.4375 L 6.390625 -0.984375 L 10.921875 -0.984375 C 12.472656 -0.984375 13.660156 -1.328125 14.484375 -2.015625 C 15.304688 -2.710938 15.992188 -3.75 16.546875 -5.125 L 16.859375 -5.125 L 15.03125 0 L 1.890625 0 L 1.890625 -0.3125 Z M 2.3125 -0.3125 "/></g></g></g><g fill="#ffffff" fill-opacity="1"><g transform="translate(179.125215, 314.759336)"><g><path d="M 2.3125 -0.3125 C 2.851562 -0.3125 3.316406 -0.503906 3.703125 -0.890625 C 4.097656 -1.285156 4.304688 -1.757812 4.328125 -2.3125 L 4.328125 -19.84375 C 4.304688 -20.382812 4.097656 -20.847656 3.703125 -21.234375 C 3.316406 -21.628906 2.851562 -21.828125 2.3125 -21.828125 L 1.890625 -21.828125 L 1.890625 -22.140625 L 8.828125 -22.140625 L 8.828125 -21.828125 L 8.421875 -21.828125 C 7.660156 -21.828125 7.078125 -21.5 6.671875 -20.84375 C 6.484375 -20.53125 6.390625 -20.195312 6.390625 -19.84375 L 6.390625 -0.984375 L 10.921875 -0.984375 C 12.472656 -0.984375 13.660156 -1.328125 14.484375 -2.015625 C 15.304688 -2.710938 15.992188 -3.75 16.546875 -5.125 L 16.859375 -5.125 L 15.03125 0 L 1.890625 0 L 1.890625 -0.3125 Z M 2.3125 -0.3125 "/></g></g></g><g fill="#ffffff" fill-opacity="1"><g transform="translate(209.559544, 314.759336)"><g><path d="M 5.359375 -19.40625 C 7.460938 -21.53125 10.203125 -22.59375 13.578125 -22.59375 C 16.953125 -22.59375 19.691406 -21.53125 21.796875 -19.40625 C 23.910156 -17.289062 24.96875 -14.515625 24.96875 -11.078125 C 24.96875 -7.640625 23.910156 -4.859375 21.796875 -2.734375 C 19.691406 -0.617188 16.953125 0.4375 13.578125 0.4375 C 10.203125 0.4375 7.460938 -0.617188 5.359375 -2.734375 C 3.265625 -4.859375 2.21875 -7.640625 2.21875 -11.078125 C 2.21875 -14.515625 3.265625 -17.289062 5.359375 -19.40625 Z M 7.109375 -3.40625 C 8.742188 -1.46875 10.90625 -0.5 13.59375 -0.5 C 16.28125 -0.5 18.441406 -1.46875 20.078125 -3.40625 C 21.710938 -5.351562 22.53125 -7.910156 22.53125 -11.078125 C 22.53125 -13.160156 22.160156 -15.003906 21.421875 -16.609375 C 20.679688 -18.210938 19.628906 -19.453125 18.265625 -20.328125 C 16.910156 -21.203125 15.347656 -21.640625 13.578125 -21.640625 C 10.898438 -21.640625 8.742188 -20.664062 7.109375 -18.71875 C 5.472656 -16.78125 4.65625 -14.226562 4.65625 -11.0625 C 4.65625 -7.90625 5.472656 -5.351562 7.109375 -3.40625 Z M 7.109375 -3.40625 "/></g></g></g><g fill="#ffffff" fill-opacity="1"><g transform="translate(248.724156, 314.759336)"><g><path d="M 16.671875 -16.046875 C 16.671875 -15.117188 16.484375 -14.253906 16.109375 -13.453125 C 15.410156 -11.953125 14.1875 -10.90625 12.4375 -10.3125 C 11.820312 -10.101562 11.296875 -10 10.859375 -10 C 9.546875 -10 8.414062 -10.238281 7.46875 -10.71875 L 7.46875 -11.046875 C 9.007812 -10.703125 10.429688 -10.867188 11.734375 -11.546875 C 12.898438 -12.140625 13.691406 -13.109375 14.109375 -14.453125 C 14.234375 -14.878906 14.296875 -15.28125 14.296875 -15.65625 C 14.296875 -16.039062 14.296875 -16.273438 14.296875 -16.359375 C 14.253906 -17.835938 13.863281 -19.015625 13.125 -19.890625 C 12.382812 -20.765625 11.351562 -21.203125 10.03125 -21.203125 L 6.390625 -21.203125 L 6.390625 -2.3125 C 6.410156 -1.757812 6.613281 -1.285156 7 -0.890625 C 7.394531 -0.503906 7.867188 -0.3125 8.421875 -0.3125 L 8.828125 -0.3125 L 8.828125 0 L 1.890625 0 L 1.890625 -0.3125 L 2.3125 -0.3125 C 2.851562 -0.3125 3.316406 -0.503906 3.703125 -0.890625 C 4.097656 -1.285156 4.304688 -1.757812 4.328125 -2.3125 L 4.328125 -20 C 4.265625 -20.519531 4.039062 -20.953125 3.65625 -21.296875 C 3.28125 -21.648438 2.832031 -21.828125 2.3125 -21.828125 L 1.9375 -21.828125 L 1.890625 -22.140625 L 10.15625 -22.140625 C 12.175781 -22.140625 13.765625 -21.597656 14.921875 -20.515625 C 16.085938 -19.429688 16.671875 -17.941406 16.671875 -16.046875 Z M 16.671875 -16.046875 "/></g></g></g><g fill="#ffffff" fill-opacity="1"><g transform="translate(279.632955, 314.759336)"><g><path d="M 2.3125 -0.3125 C 2.851562 -0.3125 3.316406 -0.503906 3.703125 -0.890625 C 4.097656 -1.285156 4.304688 -1.757812 4.328125 -2.3125 L 4.328125 -20.03125 C 4.265625 -20.53125 4.039062 -20.953125 3.65625 -21.296875 C 3.28125 -21.648438 2.832031 -21.828125 2.3125 -21.828125 L 1.9375 -21.828125 L 1.890625 -22.140625 L 11.171875 -22.140625 C 11.828125 -22.140625 12.535156 -22.203125 13.296875 -22.328125 C 14.066406 -22.460938 14.613281 -22.59375 14.9375 -22.71875 L 14.9375 -18.734375 L 14.625 -18.734375 L 14.625 -19.296875 C 14.625 -19.804688 14.445312 -20.238281 14.09375 -20.59375 C 13.75 -20.957031 13.332031 -21.148438 12.84375 -21.171875 L 6.390625 -21.171875 L 6.390625 -11.390625 L 11.734375 -11.390625 C 12.160156 -11.410156 12.519531 -11.566406 12.8125 -11.859375 C 13.101562 -12.160156 13.25 -12.53125 13.25 -12.96875 L 13.25 -13.421875 L 13.578125 -13.421875 L 13.578125 -8.421875 L 13.25 -8.421875 L 13.25 -8.890625 C 13.25 -9.316406 13.109375 -9.675781 12.828125 -9.96875 C 12.546875 -10.257812 12.191406 -10.414062 11.765625 -10.4375 L 6.390625 -10.4375 L 6.390625 -0.984375 L 10.921875 -0.984375 C 12.472656 -0.984375 13.660156 -1.328125 14.484375 -2.015625 C 15.304688 -2.710938 15.992188 -3.75 16.546875 -5.125 L 16.859375 -5.125 L 15.03125 0 L 1.890625 0 L 1.890625 -0.3125 Z M 2.3125 -0.3125 "/></g></g></g><g fill="#ffffff" fill-opacity="1"><g transform="translate(310.541754, 314.759336)"><g><path d="M 8.421875 -21.171875 L 6.390625 -21.171875 L 6.390625 -2.3125 C 6.390625 -1.757812 6.582031 -1.285156 6.96875 -0.890625 C 7.363281 -0.503906 7.847656 -0.3125 8.421875 -0.3125 L 8.796875 -0.3125 L 8.828125 0 L 1.890625 0 L 1.890625 -0.3125 L 2.3125 -0.3125 C 2.851562 -0.3125 3.316406 -0.5 3.703125 -0.875 C 4.097656 -1.257812 4.304688 -1.726562 4.328125 -2.28125 L 4.328125 -19.84375 C 4.304688 -20.382812 4.097656 -20.847656 3.703125 -21.234375 C 3.316406 -21.628906 2.851562 -21.828125 2.3125 -21.828125 L 1.890625 -21.828125 L 1.890625 -22.140625 L 10.4375 -22.140625 C 12.363281 -22.140625 13.875 -21.609375 14.96875 -20.546875 C 16.0625 -19.484375 16.609375 -18.101562 16.609375 -16.40625 C 16.609375 -14.707031 16.085938 -13.238281 15.046875 -12 C 14.003906 -10.769531 12.734375 -10.15625 11.234375 -10.15625 C 11.546875 -10.007812 11.914062 -9.71875 12.34375 -9.28125 C 12.78125 -8.851562 13.171875 -8.40625 13.515625 -7.9375 C 15.328125 -5.34375 16.503906 -3.742188 17.046875 -3.140625 C 17.597656 -2.546875 17.988281 -2.132812 18.21875 -1.90625 C 18.457031 -1.6875 18.710938 -1.472656 18.984375 -1.265625 C 19.253906 -1.054688 19.53125 -0.890625 19.8125 -0.765625 C 20.414062 -0.460938 21.066406 -0.3125 21.765625 -0.3125 L 21.765625 0 L 20.03125 0 C 19.125 0 18.28125 -0.160156 17.5 -0.484375 C 16.71875 -0.816406 16.128906 -1.15625 15.734375 -1.5 C 15.347656 -1.851562 15.007812 -2.191406 14.71875 -2.515625 C 14.4375 -2.835938 13.648438 -3.925781 12.359375 -5.78125 C 11.078125 -7.644531 10.332031 -8.707031 10.125 -8.96875 C 9.914062 -9.226562 9.691406 -9.488281 9.453125 -9.75 C 8.785156 -10.46875 8.113281 -10.828125 7.4375 -10.828125 L 7.4375 -11.140625 C 7.601562 -11.117188 7.820312 -11.109375 8.09375 -11.109375 C 8.375 -11.109375 8.710938 -11.117188 9.109375 -11.140625 C 11.722656 -11.203125 13.367188 -12.296875 14.046875 -14.421875 C 14.171875 -14.847656 14.234375 -15.242188 14.234375 -15.609375 C 14.234375 -15.984375 14.234375 -16.222656 14.234375 -16.328125 C 14.191406 -17.742188 13.820312 -18.882812 13.125 -19.75 C 12.4375 -20.613281 11.5 -21.078125 10.3125 -21.140625 C 9.8125 -21.160156 9.179688 -21.171875 8.421875 -21.171875 Z M 8.421875 -21.171875 "/></g></g></g></svg>