<!DOCTYPE svg PUBLIC "-//W3C//DTD SVG 1.1//EN" "http://www.w3.org/Graphics/SVG/1.1/DTD/svg11.dtd">
<!-- Uploaded to: SVG Repo, www.svgrepo.com, Transformed by: SVG Repo Mixer Tools -->
<svg width="800px" height="800px" viewBox="0 0 24 24" fill="none" xmlns="http://www.w3.org/2000/svg">
<g id="SVGRepo_bgCarrier" stroke-width="0"/>
<g id="SVGRepo_iconCarrier"> <path fill-rule="evenodd" clip-rule="evenodd" d="M20.479 7.57827L15.093 3.12502C13.2787 1.62499 10.7213 1.62499 8.90703 3.12502L3.52097 7.57827C2.55059 8.38059 2 9.59705 2 10.8663V17.8109C2 20.066 3.73415 22 6 22H8C9.10457 22 10 21.1046 10 20V16.7478C10 15.4803 10.9521 14.5587 12 14.5587C13.0479 14.5587 14 15.4803 14 16.7478V20C14 21.1046 14.8954 22 16 22H18C20.2659 22 22 20.066 22 17.8109V10.8663C22 9.59706 21.4494 8.38059 20.479 7.57827Z" fill="#ffffff"/> </g>
</svg>