<!DOCTYPE svg PUBLIC "-//W3C//DTD SVG 1.1//EN" "http://www.w3.org/Graphics/SVG/1.1/DTD/svg11.dtd">
<!-- Uploaded to: SVG Repo, www.svgrepo.com, Transformed by: SVG Repo Mixer Tools -->
<svg fill="#ffffff" height="800px" width="800px" version="1.1" id="Layer_1" xmlns="http://www.w3.org/2000/svg" xmlns:xlink="http://www.w3.org/1999/xlink" viewBox="0 0 511.999 511.999" xml:space="preserve">
<g id="SVGRepo_bgCarrier" stroke-width="0"/>
<g id="SVGRepo_iconCarrier"> <g> <g> <path d="M508.491,86.514C508.491,38.81,469.681,0,421.977,0c-47.703,0-86.513,38.81-86.513,86.514 c0,5.934,0.603,11.728,1.746,17.328l-185.427,98.487c-15.712-16.038-37.59-26.014-61.762-26.014 c-47.704,0-86.514,38.81-86.514,86.514c0,47.703,38.81,86.513,86.514,86.513c22.299,0,42.652-8.484,58.009-22.389l124.545,76.128 c-1.92,7.15-2.959,14.657-2.959,22.406c0,47.704,38.81,86.514,86.513,86.514s86.513-38.81,86.513-86.514 c0-33.345-18.976-62.325-46.685-76.761l34.208-176.096C474.043,168.488,508.491,131.455,508.491,86.514z M90.022,294.988 c-17.732,0-32.16-14.426-32.16-32.159c0-17.732,14.426-32.16,32.16-32.16s32.16,14.427,32.16,32.16 S107.754,294.988,90.022,294.988z M173.577,285.234c1.92-7.15,2.959-14.657,2.959-22.406c0-5.934-0.603-11.728-1.746-17.328 l185.427-98.488c6.38,6.512,13.778,12.013,21.934,16.263l-34.209,176.097c-19.074,1.799-36.366,9.808-49.82,21.991 L173.577,285.234z M356.129,457.645c-17.732,0-32.159-14.428-32.159-32.16c0-17.732,14.426-32.159,32.159-32.159 c17.732,0,32.159,14.426,32.159,32.159C388.288,443.219,373.863,457.645,356.129,457.645z M389.818,86.514 c0-17.732,14.426-32.16,32.159-32.16c17.732,0,32.16,14.427,32.16,32.16c0,17.732-14.427,32.159-32.16,32.159 C404.245,118.672,389.818,104.246,389.818,86.514z"/> </g> </g> </g>
</svg>